HIERARCHY
ROOT Hips
{
	OFFSET 50.339100 -1.801778 51.468399
	CHANNELS 6 Xposition Yposition Zposition Xrotation Yrotation Zrotation
	JOINT spine
	{
		OFFSET 0.000000 -0.448574 7.800591
		CHANNELS 3 Xrotation Yrotation Zrotation
		JOINT spine1
		{
			OFFSET 0.000000 -0.000001 10.136398
			CHANNELS 3 Xrotation Yrotation Zrotation
			JOINT spine2
			{
				OFFSET 0.000000 -0.000002 9.712509
				CHANNELS 3 Xrotation Yrotation Zrotation
				JOINT Neck
				{
					OFFSET 0.000000 -1.188874 24.936104
					CHANNELS 3 Xrotation Yrotation Zrotation
					JOINT Head
					{
						OFFSET 0.000000 -0.000001 7.533844
						CHANNELS 3 Xrotation Yrotation Zrotation
						End Site
						{
							OFFSET 0.000000 6.014017 18.236099
						}
					}
				}
				JOINT RightShoulder
				{
					OFFSET -4.089649 0.569455 10.488800
					CHANNELS 3 Xrotation Yrotation Zrotation
					JOINT RightArm
					{
						OFFSET 0.000000 -0.000002 13.756996
						CHANNELS 3 Xrotation Yrotation Zrotation
						JOINT RightArmRoll
						{
							OFFSET 0.000000 -0.000001 6.944778
							CHANNELS 3 Xrotation Yrotation Zrotation
							JOINT RightForeArm
							{
								OFFSET 0.000000 -0.000003 20.227692
								CHANNELS 3 Xrotation Yrotation Zrotation
								JOINT RightForeArmRoll
								{
									OFFSET 0.000000 -0.000001 7.793121
									CHANNELS 3 Xrotation Yrotation Zrotation
									JOINT RightHand
									{
										OFFSET 0.000000 -0.000003 15.639099
										CHANNELS 3 Xrotation Yrotation Zrotation
										End Site
										{
											OFFSET 0.000000 -0.000000 0.100006
										}
									}
								}
							}
						}
					}
				}
				JOINT LeftShoulder
				{
					OFFSET 4.089649 0.569455 10.488800
					CHANNELS 3 Xrotation Yrotation Zrotation
					JOINT LeftArm
					{
						OFFSET 0.000000 -0.000002 13.756996
						CHANNELS 3 Xrotation Yrotation Zrotation
						JOINT LeftArmRoll
						{
							OFFSET 0.000000 -0.000001 6.944778
							CHANNELS 3 Xrotation Yrotation Zrotation
							JOINT LeftForeArm
							{
								OFFSET 0.000000 -0.000003 20.227692
								CHANNELS 3 Xrotation Yrotation Zrotation
								JOINT LeftForeArmRoll
								{
									OFFSET 0.000000 -0.000001 7.793137
									CHANNELS 3 Xrotation Yrotation Zrotation
									JOINT LeftHand
									{
										OFFSET 0.000000 -0.000003 15.639099
										CHANNELS 3 Xrotation Yrotation Zrotation
										End Site
										{
											OFFSET 0.000000 -0.000000 0.100006
										}
									}
								}
							}
						}
					}
				}
			}
		}
	}
	JOINT RightUpLeg
	{
		OFFSET -6.914158 1.063580 -1.267879
		CHANNELS 3 Xrotation Yrotation Zrotation
		JOINT RightUpLegRoll
		{
			OFFSET 0.000000 -0.000003 18.337795
			CHANNELS 3 Xrotation Yrotation Zrotation
			JOINT RightLeg
			{
				OFFSET 0.000000 0.000004 -22.708500
				CHANNELS 3 Xrotation Yrotation Zrotation
				JOINT RightLegRoll
				{
					OFFSET 0.000000 -0.000004 22.782803
					CHANNELS 3 Xrotation Yrotation Zrotation
					JOINT RightFoot
					{
						OFFSET 0.000000 -0.000003 18.962898
						CHANNELS 3 Xrotation Yrotation Zrotation
						JOINT RightToeBase
						{
							OFFSET 0.000000 -0.000003 15.851997
							CHANNELS 3 Xrotation Yrotation Zrotation
							End Site
							{
								OFFSET 0.006718 0.884891 7.677010
							}
						}
					}
				}
			}
		}
	}
	JOINT LeftUpLeg
	{
		OFFSET 6.914158 1.063580 -1.267879
		CHANNELS 3 Xrotation Yrotation Zrotation
		JOINT LeftUpLegRoll
		{
			OFFSET 0.000000 -0.000003 18.337902
			CHANNELS 3 Xrotation Yrotation Zrotation
			JOINT LeftLeg
			{
				OFFSET 0.000000 -0.000004 22.708405
				CHANNELS 3 Xrotation Yrotation Zrotation
				JOINT LeftLegRoll
				{
					OFFSET 0.000000 -0.000004 22.993401
					CHANNELS 3 Xrotation Yrotation Zrotation
					JOINT LeftFoot
					{
						OFFSET 0.000000 -0.000003 18.752205
						CHANNELS 3 Xrotation Yrotation Zrotation
						JOINT LeftToeBase
						{
							OFFSET 0.000000 -0.000003 15.852005
							CHANNELS 3 Xrotation Yrotation Zrotation
							End Site
							{
								OFFSET -0.030113 0.884892 7.677017
							}
						}
					}
				}
			}
		}
	}
}
MOTION
Frames: 9
Frame Time: 0.041667
48.524200 -6.016087 52.330299 -16.506342 0.235565 15.044207 8.360157 -1.343615 -0.758873 20.732508 -2.763052 -1.300138 22.378326 -2.778425 -1.266925 -7.408418 12.941371 -3.289957 -0.135692 -14.412063 -4.769052 -11.343772 -44.899239 -12.623757 118.381221 -31.234165 80.903639 -0.000000 0.000000 -0.000002 55.852393 -12.762173 5.973690 0.000008 0.000022 -3.000002 -5.000265 -7.998802 0.000167 -13.190665 48.239427 15.147176 -76.487040 136.448615 112.386637 0.000000 0.000001 0.000001 59.758664 11.585861 -2.327385 -0.000002 -0.000006 2.999998 -5.000215 7.999124 -0.000092 -72.202387 177.454325 5.144408 -179.999991 0.000004 -1.886998 71.934808 5.626243 4.636994 -0.000003 -0.000003 2.947400 83.750031 5.674199 5.562637 25.456959 -7.355617 0.000012 -75.596452 180.666126 -1.782234 -0.000005 -0.000003 -2.054990 -103.310320 -6.864476 -6.405899 -0.000001 -0.000001 -2.832269 76.122984 -6.502229 -2.775930 25.467359 7.355618 -0.000001 
48.537498 -6.006969 52.326904 -16.625121 0.217909 15.065664 8.360386 -1.343872 -0.765086 20.733032 -2.764138 -1.312449 22.378751 -2.779664 -1.279231 -7.330130 12.861291 -3.293171 -0.172660 -14.374340 -4.753621 -11.325023 -45.005527 -12.606014 118.340541 -31.246408 80.922217 0.000000 0.000000 0.000000 55.765780 -12.796015 5.983459 0.000003 0.000024 -3.000001 -5.000261 -7.998801 0.000166 -13.190564 48.233123 15.146771 -76.416307 136.431062 112.267826 0.000001 -0.000001 0.000000 59.674038 11.602494 -2.337227 0.000000 -0.000005 2.999999 -5.000217 7.999125 -0.000093 -72.087524 177.460076 5.165140 -179.999991 0.000003 -1.890003 71.950005 5.626556 4.634678 -0.000001 -0.000002 2.951079 83.735681 5.680761 5.535415 25.456955 -7.355617 0.000011 -75.486049 180.657315 -1.782676 -0.000005 -0.000003 -2.058140 -103.283266 -6.867930 -6.405656 0.000000 -0.000001 -2.832582 76.095301 -6.512304 -2.746055 25.467351 7.355618 -0.000002 
48.529404 -5.986568 52.331299 -16.742607 0.201968 15.086759 8.360578 -1.344277 -0.771231 20.733061 -2.765868 -1.324595 22.378789 -2.781532 -1.291351 -7.253411 12.783702 -3.295215 -0.208293 -14.339212 -4.737417 -11.306120 -45.110555 -12.588022 118.301786 -31.257466 80.944845 -0.000001 0.000001 -0.000002 55.678213 -12.830276 5.993118 0.000003 0.000023 -3.000001 -5.000262 -7.998800 0.000166 -13.192651 48.227658 15.149182 -76.348565 136.417770 112.154390 -0.000001 0.000002 -0.000002 59.589555 11.622273 -2.348692 -0.000001 -0.000004 3.000003 -5.000210 7.999122 -0.000095 -71.973890 177.464379 5.187439 -179.999991 0.000003 -1.894007 71.965503 5.626442 4.632178 -0.000002 -0.000002 2.954679 83.721488 5.687351 5.508281 25.456955 -7.355616 0.000012 -75.376486 180.647234 -1.782459 -0.000005 -0.000004 -2.060990 -103.256853 -6.871646 -6.404479 0.000001 -0.000000 -2.832327 76.068828 -6.521385 -2.719297 25.467352 7.355623 -0.000001 
48.521801 -5.972416 52.342701 -16.859291 0.187360 15.107680 8.360797 -1.344809 -0.777361 20.732800 -2.768109 -1.336672 22.378533 -2.783924 -1.303393 -7.178392 12.708503 -3.296390 -0.242442 -14.306477 -4.720729 -11.286929 -45.214087 -12.569606 118.265040 -31.267421 80.972166 0.000000 0.000001 -0.000001 55.588195 -12.865681 6.002754 0.000007 0.000023 -3.000002 -5.000263 -7.998801 0.000167 -13.196959 48.223045 15.154407 -76.283077 136.409287 112.045005 0.000002 -0.000000 0.000000 59.503782 11.645198 -2.361615 -0.000001 -0.000002 3.000001 -5.000212 7.999120 -0.000092 -71.861062 177.468081 5.209482 -179.999991 0.000003 -1.896998 71.981479 5.625827 4.629679 -0.000001 -0.000002 2.958330 83.707459 5.694113 5.480452 25.456952 -7.355616 0.000012 -75.267223 180.636428 -1.782433 -0.000005 -0.000004 -2.063589 -103.230994 -6.875618 -6.402372 -0.000000 -0.000001 -2.831656 76.043474 -6.529535 -2.695364 25.467354 7.355621 -0.000002 
48.520901 -5.955407 52.343700 -16.975184 0.174009 15.128319 8.361010 -1.345452 -0.783463 20.732351 -2.770820 -1.348641 22.377995 -2.786776 -1.315342 -7.104798 12.635304 -3.296834 -0.275344 -14.276044 -4.703638 -11.267538 -45.316464 -12.550891 118.230752 -31.275720 81.005340 -0.000001 -0.000001 0.000001 55.495929 -12.902098 6.012228 0.000003 0.000025 -3.000000 -5.000260 -7.998802 0.000166 -13.203268 48.219397 15.162216 -76.220424 136.404697 111.940401 0.000002 0.000000 -0.000000 59.417031 11.670888 -2.375824 -0.000001 -0.000007 3.000000 -5.000219 7.999125 -0.000093 -71.749088 177.470854 5.232406 -179.999991 0.000003 -1.901001 71.997769 5.624869 4.627006 -0.000003 -0.000001 2.962010 83.693593 5.700901 5.452216 25.456953 -7.355617 0.000012 -75.158616 180.624339 -1.780554 -0.000005 -0.000003 -2.065970 -103.205722 -6.879247 -6.401255 0.000001 -0.000001 -2.830598 76.018926 -6.537040 -2.673507 25.467349 7.355619 -0.000002 
48.521202 -5.942258 52.348000 -17.089970 0.161835 15.148757 8.361179 -1.346194 -0.789523 20.731407 -2.773944 -1.360524 22.377156 -2.790048 -1.327173 -7.032383 12.563826 -3.296676 -0.307216 -14.247504 -4.686210 -11.247967 -45.417859 -12.531931 118.198076 -31.283458 81.042257 0.000001 -0.000003 -0.000002 55.401669 -12.939393 6.021502 0.000007 0.000025 -3.000000 -5.000261 -7.998801 0.000168 -13.211305 48.216354 15.172207 -76.159294 136.403276 111.838870 0.000001 0.000000 0.000004 59.329694 11.698955 -2.391165 -0.000001 -0.000005 3.000002 -5.000212 7.999123 -0.000092 -71.638057 177.472698 5.256427 -179.999991 0.000003 -1.904005 72.014557 5.623468 4.624235 -0.000003 -0.000002 2.965691 83.679735 5.707843 5.423698 25.456955 -7.355617 0.000012 -75.050597 180.611471 -1.778705 -0.000005 -0.000004 -2.068160 -103.180908 -6.883054 -6.400173 0.000000 -0.000001 -2.829229 75.995294 -6.543888 -2.653523 25.467351 7.355621 -0.000003 
48.520805 -5.937808 52.337399 -17.203867 0.150759 15.168979 8.361275 -1.347023 -0.795532 20.730171 -2.777438 -1.372272 22.375930 -2.793670 -1.338884 -6.960894 12.493769 -3.296055 -0.338286 -14.220763 -4.668514 -11.228291 -45.518365 -12.512808 118.167464 -31.290176 81.083997 0.000000 0.000001 0.000001 55.305872 -12.977288 6.030622 0.000003 0.000023 -3.000002 -5.000265 -7.998802 0.000168 -13.220829 48.213943 15.184122 -76.099338 136.404383 111.739750 -0.000002 0.000001 -0.000001 59.242151 11.728871 -2.407419 -0.000001 -0.000005 3.000002 -5.000218 7.999121 -0.000094 -71.527947 177.473873 5.280755 -179.999991 0.000004 -1.906998 72.031680 5.621778 4.621207 -0.000001 -0.000003 2.969330 83.665815 5.714867 5.395083 25.456957 -7.355617 0.000012 -74.943479 180.597797 -1.776777 -0.000005 -0.000004 -2.070200 -103.156368 -6.886966 -6.398144 0.000000 -0.000000 -2.827579 75.972215 -6.550261 -2.635149 25.467354 7.355621 -0.000003 
48.514706 -5.918190 52.347599 -17.316749 0.140706 15.188971 8.361230 -1.347934 -0.801479 20.728536 -2.781229 -1.383879 22.374305 -2.797599 -1.350443 -6.890071 12.424657 -3.295090 -0.368779 -14.195419 -4.650633 -11.208523 -45.618174 -12.493550 118.138449 -31.296340 81.129465 0.000001 -0.000001 -0.000004 55.208819 -13.015706 6.039642 0.000002 0.000025 -3.000000 -5.000259 -7.998800 0.000169 -13.231592 48.211973 15.197598 -76.042122 136.406855 111.645323 -0.000000 -0.000001 -0.000002 59.154677 11.760291 -2.424208 -0.000002 -0.000006 2.999998 -5.000212 7.999119 -0.000093 -71.418794 177.474734 5.304640 -179.999991 0.000003 -1.911000 72.049234 5.619801 4.618110 -0.000004 -0.000001 2.972921 83.651943 5.721804 5.366460 25.456955 -7.355616 0.000012 -74.837133 180.583330 -1.774696 -0.000005 -0.000004 -2.072109 -103.132120 -6.890699 -6.396088 0.000001 -0.000000 -2.825702 75.949750 -6.556279 -2.617797 25.467349 7.355619 -0.000003 
48.512901 -5.905644 52.348404 -17.428548 0.131596 15.208712 8.361030 -1.348924 -0.807354 20.726405 -2.785272 -1.395320 22.372192 -2.801776 -1.361837 -6.819672 12.356389 -3.293886 -0.398920 -14.171274 -4.632644 -11.188746 -45.717492 -12.474278 118.110172 -31.303126 81.176798 0.000000 0.000002 -0.000001 55.110771 -13.054415 6.048460 0.000005 0.000024 -3.000000 -5.000260 -7.998803 0.000166 -13.243378 48.210501 15.212383 -75.984400 136.410475 111.551066 0.000001 0.000002 -0.000000 59.067537 11.792713 -2.441400 -0.000001 -0.000005 3.000004 -5.000215 7.999121 -0.000096 -71.310658 177.474911 5.329211 -179.999991 0.000001 -1.914005 72.067136 5.617575 4.614856 -0.000003 -0.000003 2.976430 83.637955 5.728739 5.338047 25.456948 -7.355615 0.000012 -74.731791 180.568017 -1.772396 -0.000005 -0.000003 -2.073920 -103.108071 -6.894495 -6.395059 0.000000 -0.000001 -2.823659 75.927641 -6.562100 -2.601101 25.467352 7.355619 -0.000001 
